<svg width="59" height="59" viewBox="0 0 59 59" fill="none" xmlns="http://www.w3.org/2000/svg">
<path d="M53.4226 28.5C53.7799 29.1188 53.7799 29.8812 53.4226 30.5L42.3273 49.7176C41.9701 50.3364 41.3098 50.7176 40.5953 50.7176L18.4047 50.7176C17.6902 50.7176 17.0299 50.3364 16.6727 49.7176L5.57735 30.5C5.22009 29.8812 5.22009 29.1188 5.57735 28.5L16.6727 9.28238C17.0299 8.66357 17.6902 8.28238 18.4047 8.28238L40.5953 8.28238C41.3098 8.28238 41.9701 8.66357 42.3274 9.28238L53.4226 28.5Z" fill="#39B2BE"/>
<path d="M57.5566 29C57.7353 29.3094 57.7353 29.6906 57.5566 30L43.9613 53.5478C43.7827 53.8572 43.4526 54.0478 43.0953 54.0478L15.9047 54.0478C15.5474 54.0478 15.2173 53.8571 15.0387 53.5478L1.44338 30C1.26475 29.6906 1.26475 29.3094 1.44338 29L15.0387 5.45225C15.2173 5.14285 15.5474 4.95225 15.9047 4.95225L43.0953 4.95225C43.4526 4.95225 43.7827 5.14285 43.9613 5.45225L57.5566 29Z" stroke="#39B2BE" stroke-width="2"/>
</svg>
